<svg width="42" height="12" viewBox="0 0 42 12" fill="none" xmlns="http://www.w3.org/2000/svg">
<path d="M5.12012 11.1641C7.45117 11.1641 9.06445 9.88574 9.37207 7.77344H7.64258C7.36914 8.96289 6.43262 9.66699 5.12695 9.66699C3.41797 9.66699 2.33789 8.2793 2.33789 6.06445C2.33789 3.86328 3.4248 2.46875 5.12012 2.46875C6.39844 2.46875 7.40332 3.28223 7.63574 4.51953H9.37207C9.15332 2.40039 7.41016 0.97168 5.12012 0.97168C2.31738 0.97168 0.533203 2.91992 0.533203 6.06445C0.533203 9.22949 2.30371 11.1641 5.12012 11.1641ZM10.541 11H12.2432V6.78223C12.2432 5.76367 12.8242 5.1416 13.7881 5.1416C14.0752 5.1416 14.335 5.18262 14.4785 5.2373V3.69922C14.3555 3.67188 14.1641 3.63086 13.9453 3.63086C13.0908 3.63086 12.4551 4.13672 12.209 5.01855H12.1748V3.75391H10.541V11ZM18.2041 4.92285C19.1816 4.92285 19.8379 5.64062 19.8721 6.66602H16.4883C16.5566 5.6543 17.2471 4.92285 18.2041 4.92285ZM19.8789 8.83301C19.6943 9.43457 19.0928 9.83105 18.2998 9.83105C17.1855 9.83105 16.4746 9.05176 16.4746 7.88965V7.78711H21.54V7.2334C21.54 5.03223 20.2549 3.60352 18.1973 3.60352C16.1055 3.60352 14.7793 5.11426 14.7793 7.4043C14.7793 9.71484 16.0918 11.1436 18.2656 11.1436C19.9814 11.1436 21.2529 10.2002 21.4717 8.83301H19.8789ZM25.2861 9.83105C24.5479 9.83105 24.0557 9.45508 24.0557 8.86035C24.0557 8.28613 24.5273 7.91699 25.3477 7.8623L27.0225 7.75977V8.31348C27.0225 9.18848 26.25 9.83105 25.2861 9.83105ZM24.7734 11.1162C25.7031 11.1162 26.6123 10.6309 27.0293 9.84473H27.0635V11H28.7041V6.00977C28.7041 4.55371 27.5352 3.60352 25.7373 3.60352C23.8916 3.60352 22.7363 4.57422 22.6611 5.92773H24.2402C24.3496 5.32617 24.8623 4.93652 25.6689 4.93652C26.5098 4.93652 27.0225 5.37402 27.0225 6.13281V6.65234L25.1084 6.76172C23.3447 6.87109 22.3535 7.64355 22.3535 8.92871C22.3535 10.2344 23.3721 11.1162 24.7734 11.1162ZM30.5498 2.05859V3.75391H29.5107V5.06641H30.5498V9.07227C30.5498 10.4805 31.165 11.0342 32.7305 11.0342C33.0928 11.0342 33.4277 11.0068 33.6123 10.9658V9.66699C33.5029 9.6875 33.2842 9.70117 33.127 9.70117C32.5254 9.70117 32.252 9.42773 32.252 8.83301V5.06641H33.6191V3.75391H32.252V2.05859H30.5498ZM37.7686 4.92285C38.7461 4.92285 39.4023 5.64062 39.4365 6.66602H36.0527C36.1211 5.6543 36.8115 4.92285 37.7686 4.92285ZM39.4434 8.83301C39.2588 9.43457 38.6572 9.83105 37.8643 9.83105C36.75 9.83105 36.0391 9.05176 36.0391 7.88965V7.78711H41.1045V7.2334C41.1045 5.03223 39.8193 3.60352 37.7617 3.60352C35.6699 3.60352 34.3438 5.11426 34.3438 7.4043C34.3438 9.71484 35.6562 11.1436 37.8301 11.1436C39.5459 11.1436 40.8174 10.2002 41.0361 8.83301H39.4434Z" fill="white"/>
</svg>
