<svg width="24" height="24" viewBox="0 0 24 24" fill="none" xmlns="http://www.w3.org/2000/svg">
<path d="M12.0031 4.04531L3.33121 12.7102H5.58121V20.3438H9.18824V15C9.18824 14.482 9.60778 14.0625 10.1257 14.0625H13.8757C14.3937 14.0625 14.8132 14.482 14.8132 15V20.3438H18.4203V12.7102H20.6726L12.5445 4.58672L12.0031 4.04531ZM22.1867 13.957C22.0461 14.0977 21.8797 14.2102 21.6992 14.2828C21.8797 14.2078 22.0461 14.0977 22.1867 13.957ZM1.39762 13.1438C1.51481 13.8539 2.13356 14.3977 2.87653 14.3977H2.89762C2.14996 14.3977 1.51715 13.8586 1.39762 13.1438ZM1.37653 12.8977V12.8531V12.8977ZM1.37887 12.8367C1.38121 12.7641 1.39059 12.6938 1.40231 12.6235C1.38824 12.6914 1.38121 12.7641 1.37887 12.8367Z" fill="#E6F7FF"/>
<path d="M22.2883 11.9531C22.2883 11.9508 22.286 11.9508 22.286 11.9484L22.2438 11.8992C22.2414 11.8969 22.2391 11.8922 22.2344 11.8898C22.218 11.8711 22.1993 11.8523 22.1828 11.8336L13.1266 2.78436L12.5196 2.17733C12.3813 2.03993 12.1942 1.96282 11.9993 1.96282C11.8043 1.96282 11.6173 2.03993 11.4789 2.17733L1.81566 11.8359C1.64109 12.0096 1.51225 12.2238 1.44066 12.4594L1.4266 12.5086L1.41957 12.5344L1.41254 12.5625C1.40785 12.5789 1.40551 12.5953 1.40316 12.6117C1.40316 12.614 1.40316 12.6187 1.40082 12.6211C1.38676 12.6914 1.37972 12.7617 1.37738 12.8344V12.9117C1.37738 12.9234 1.37738 12.9351 1.37972 12.9469C1.37972 12.9586 1.37972 12.968 1.38207 12.9797C1.38207 12.9914 1.38441 13.0031 1.38441 13.0148C1.38441 13.0289 1.38676 13.043 1.3891 13.057C1.3891 13.064 1.39144 13.0711 1.39144 13.0781L1.39847 13.1367V13.139C1.51801 13.8539 2.15316 14.393 2.89847 14.393H3.89457V22.0312H20.1063V14.3976H21.1235C21.325 14.3976 21.5196 14.3578 21.6977 14.2828C21.8758 14.2078 22.0422 14.0976 22.1852 13.957C22.3248 13.8178 22.4355 13.6523 22.5107 13.4701C22.5859 13.2878 22.6243 13.0925 22.6235 12.8953C22.6235 12.5508 22.5063 12.2203 22.2883 11.9531ZM13.3118 20.3437H10.6868V15.5625H13.3118V20.3437ZM18.4188 12.7101V20.3437H14.8118V15C14.8118 14.482 14.3922 14.0625 13.8743 14.0625H10.1243C9.60629 14.0625 9.18676 14.482 9.18676 15V20.3437H5.57972V12.7101H3.32972L12.0016 4.0453L12.543 4.58671L20.6711 12.7101H18.4188Z" fill="#1890FF"/>
</svg>
