<svg width="37" height="11" viewBox="0 0 37 11" fill="none" xmlns="http://www.w3.org/2000/svg">
<path d="M9.1875 10V0.135742H7.43066V4.2373H2.63184V0.135742H0.868164V10H2.63184V5.7207H7.43066V10H9.1875ZM13.9658 10.1436C16.0918 10.1436 17.4727 8.72852 17.4727 6.37695C17.4727 4.03223 16.0781 2.60352 13.9658 2.60352C11.8535 2.60352 10.459 4.03906 10.459 6.37695C10.459 8.72852 11.8398 10.1436 13.9658 10.1436ZM13.9658 8.79688C12.8857 8.79688 12.1885 7.92188 12.1885 6.37695C12.1885 4.83887 12.8926 3.95703 13.9658 3.95703C15.0459 3.95703 15.7432 4.83887 15.7432 6.37695C15.7432 7.92188 15.0459 8.79688 13.9658 8.79688ZM18.5664 10H20.2686V5.56348C20.2686 4.68848 20.8428 4.05273 21.6631 4.05273C22.4561 4.05273 22.9482 4.55176 22.9482 5.3584V10H24.6025V5.52246C24.6025 4.6543 25.1631 4.05273 25.9834 4.05273C26.8174 4.05273 27.2822 4.55859 27.2822 5.44727V10H28.9844V5.03027C28.9844 3.58105 28.0479 2.61719 26.6191 2.61719C25.5732 2.61719 24.7119 3.17773 24.3633 4.07324H24.3223C24.0557 3.14355 23.3242 2.61719 22.2988 2.61719C21.3145 2.61719 20.5488 3.1709 20.2344 4.01172H20.2002V2.75391H18.5664V10ZM33.4756 3.92285C34.4531 3.92285 35.1094 4.64062 35.1436 5.66602H31.7598C31.8281 4.6543 32.5186 3.92285 33.4756 3.92285ZM35.1504 7.83301C34.9658 8.43457 34.3643 8.83105 33.5713 8.83105C32.457 8.83105 31.7461 8.05176 31.7461 6.88965V6.78711H36.8115V6.2334C36.8115 4.03223 35.5264 2.60352 33.4688 2.60352C31.377 2.60352 30.0508 4.11426 30.0508 6.4043C30.0508 8.71484 31.3633 10.1436 33.5371 10.1436C35.2529 10.1436 36.5244 9.2002 36.7432 7.83301H35.1504Z" fill="white"/>
</svg>
