<svg width="53" height="11" viewBox="0 0 53 11" fill="none" xmlns="http://www.w3.org/2000/svg">
<path d="M11.0469 10V0.135742H9.00977L5.98828 7.58008H5.93359L2.91211 0.135742H0.868164V10H2.46094V3H2.50879L5.35938 9.91797H6.5625L9.41309 3H9.46094V10H11.0469ZM15.0869 8.83105C14.3486 8.83105 13.8564 8.45508 13.8564 7.86035C13.8564 7.28613 14.3281 6.91699 15.1484 6.8623L16.8232 6.75977V7.31348C16.8232 8.18848 16.0508 8.83105 15.0869 8.83105ZM14.5742 10.1162C15.5039 10.1162 16.4131 9.63086 16.8301 8.84473H16.8643V10H18.5049V5.00977C18.5049 3.55371 17.3359 2.60352 15.5381 2.60352C13.6924 2.60352 12.5371 3.57422 12.4619 4.92773H14.041C14.1504 4.32617 14.6631 3.93652 15.4697 3.93652C16.3105 3.93652 16.8232 4.37402 16.8232 5.13281V5.65234L14.9092 5.76172C13.1455 5.87109 12.1543 6.64355 12.1543 7.92871C12.1543 9.23438 13.1729 10.1162 14.5742 10.1162ZM20.3506 1.05859V2.75391H19.3115V4.06641H20.3506V8.07227C20.3506 9.48047 20.9658 10.0342 22.5312 10.0342C22.8936 10.0342 23.2285 10.0068 23.4131 9.96582V8.66699C23.3037 8.6875 23.085 8.70117 22.9277 8.70117C22.3262 8.70117 22.0527 8.42773 22.0527 7.83301V4.06641H23.4199V2.75391H22.0527V1.05859H20.3506ZM27.5693 3.92285C28.5469 3.92285 29.2031 4.64062 29.2373 5.66602H25.8535C25.9219 4.6543 26.6123 3.92285 27.5693 3.92285ZM29.2441 7.83301C29.0596 8.43457 28.458 8.83105 27.665 8.83105C26.5508 8.83105 25.8398 8.05176 25.8398 6.88965V6.78711H30.9053V6.2334C30.9053 4.03223 29.6201 2.60352 27.5625 2.60352C25.4707 2.60352 24.1445 4.11426 24.1445 6.4043C24.1445 8.71484 25.457 10.1436 27.6309 10.1436C29.3467 10.1436 30.6182 9.2002 30.8369 7.83301H29.2441ZM38.4316 2.75391H36.7295V6.94434C36.7295 7.99707 36.1211 8.69434 35.1367 8.69434C34.1797 8.69434 33.6738 8.13379 33.6738 7.09473V2.75391H31.9717V7.43652C31.9717 9.11133 32.9697 10.1299 34.542 10.1299C35.6426 10.1299 36.374 9.62402 36.7568 8.74219H36.791V10H38.4316V2.75391ZM39.6963 4.83203C39.6963 5.87793 40.373 6.5752 41.7129 6.88965L43.0322 7.19727C43.7363 7.375 44.0029 7.60059 44.0029 8.02441C44.0029 8.56445 43.4902 8.89941 42.6631 8.89941C41.8018 8.89941 41.2891 8.53027 41.1865 7.86719H39.5117C39.6279 9.24121 40.7832 10.1436 42.6016 10.1436C44.4336 10.1436 45.6982 9.2207 45.6982 7.85352C45.6982 6.78027 45.1309 6.21973 43.6816 5.87793L42.3896 5.59082C41.6787 5.41992 41.3506 5.14648 41.3506 4.73633C41.3506 4.20996 41.8428 3.85449 42.5947 3.85449C43.3877 3.85449 43.8867 4.2373 43.9414 4.85938H45.5273C45.4863 3.51953 44.3311 2.60352 42.6289 2.60352C40.8652 2.60352 39.6963 3.50586 39.6963 4.83203ZM46.6416 10H52.418V8.67383H48.7539V8.63965L52.3564 3.875V2.75391H46.6758V4.08008H50.3945V4.10742L46.6416 8.96777V10Z" fill="white"/>
</svg>
