<svg width="24" height="24" viewBox="0 0 24 24" fill="none" xmlns="http://www.w3.org/2000/svg">
<path d="M18.1719 5.83371C17.3735 5.03264 16.426 4.39565 15.3828 3.95871C14.3129 3.50917 13.1637 3.27885 12.0031 3.28136H11.9633C9.62659 3.29074 7.43987 4.2048 5.80393 5.85714C4.16565 7.50949 3.27268 9.70324 3.28206 12.04C3.28909 13.4532 3.64065 14.8571 4.30159 16.097L4.40706 16.2939V19.5939H7.70706L7.90393 19.6993C9.14377 20.3603 10.5477 20.7118 11.961 20.7189H12.0008C14.3211 20.7189 16.5008 19.8235 18.1438 18.197C19.7938 16.561 20.7102 14.3743 20.7242 12.04C20.7289 10.854 20.5016 9.70558 20.0469 8.62277C19.6097 7.57975 18.9727 6.63229 18.1719 5.83371V5.83371ZM7.31331 13.1251C7.01891 13.1191 6.73861 12.9979 6.53253 12.7876C6.32646 12.5773 6.21104 12.2946 6.21104 12.0001C6.21104 11.7057 6.32646 11.4229 6.53253 11.2126C6.73861 11.0023 7.01891 10.8811 7.31331 10.8751C7.6077 10.8811 7.88801 11.0023 8.09408 11.2126C8.30015 11.4229 8.41557 11.7057 8.41557 12.0001C8.41557 12.2946 8.30015 12.5773 8.09408 12.7876C7.88801 12.9979 7.6077 13.1191 7.31331 13.1251V13.1251ZM12.0008 13.1251C11.7064 13.1191 11.4261 12.9979 11.22 12.7876C11.014 12.5773 10.8985 12.2946 10.8985 12.0001C10.8985 11.7057 11.014 11.4229 11.22 11.2126C11.4261 11.0023 11.7064 10.8811 12.0008 10.8751C12.2952 10.8811 12.5755 11.0023 12.7816 11.2126C12.9877 11.4229 13.1031 11.7057 13.1031 12.0001C13.1031 12.2946 12.9877 12.5773 12.7816 12.7876C12.5755 12.9979 12.2952 13.1191 12.0008 13.1251V13.1251ZM16.6883 13.1251C16.3939 13.1191 16.1136 12.9979 15.9075 12.7876C15.7015 12.5773 15.586 12.2946 15.586 12.0001C15.586 11.7057 15.7015 11.4229 15.9075 11.2126C16.1136 11.0023 16.3939 10.8811 16.6883 10.8751C16.9827 10.8811 17.263 11.0023 17.4691 11.2126C17.6752 11.4229 17.7906 11.7057 17.7906 12.0001C17.7906 12.2946 17.6752 12.5773 17.4691 12.7876C17.263 12.9979 16.9827 13.1191 16.6883 13.1251V13.1251Z" fill="#E6F7FF"/>
<path d="M15.5625 12C15.5625 12.2984 15.681 12.5845 15.892 12.7955C16.103 13.0065 16.3891 13.125 16.6875 13.125C16.9859 13.125 17.272 13.0065 17.483 12.7955C17.694 12.5845 17.8125 12.2984 17.8125 12C17.8125 11.7016 17.694 11.4155 17.483 11.2045C17.272 10.9935 16.9859 10.875 16.6875 10.875C16.3891 10.875 16.103 10.9935 15.892 11.2045C15.681 11.4155 15.5625 11.7016 15.5625 12ZM6.1875 12C6.1875 12.2984 6.30603 12.5845 6.517 12.7955C6.72798 13.0065 7.01413 13.125 7.3125 13.125C7.61087 13.125 7.89702 13.0065 8.108 12.7955C8.31897 12.5845 8.4375 12.2984 8.4375 12C8.4375 11.7016 8.31897 11.4155 8.108 11.2045C7.89702 10.9935 7.61087 10.875 7.3125 10.875C7.01413 10.875 6.72798 10.9935 6.517 11.2045C6.30603 11.4155 6.1875 11.7016 6.1875 12V12Z" fill="#1890FF"/>
<path d="M21.6846 7.93125C21.1549 6.67266 20.3955 5.54297 19.4275 4.57266C18.4663 3.60796 17.3253 2.84114 16.0689 2.31563C14.7799 1.77422 13.4111 1.5 12.0002 1.5H11.9533C10.533 1.50703 9.15723 1.78828 7.86348 2.34141C6.61791 2.87232 5.48753 3.64049 4.53535 4.60312C3.57676 5.57109 2.82441 6.69609 2.3041 7.95C1.76504 9.24844 1.49316 10.6289 1.50019 12.0492C1.50815 13.6769 1.89322 15.2806 2.62519 16.7344V20.2969C2.62519 20.5828 2.73878 20.857 2.94097 21.0592C3.14316 21.2614 3.41738 21.375 3.70332 21.375H7.26816C8.72198 22.107 10.3257 22.492 11.9533 22.5H12.0025C13.4064 22.5 14.7682 22.2281 16.0502 21.6961C17.3002 21.1768 18.437 20.419 19.3971 19.4648C20.365 18.5062 21.1268 17.3859 21.6588 16.1367C22.2119 14.843 22.4932 13.4672 22.5002 12.0469C22.5072 10.6195 22.2307 9.23437 21.6846 7.93125V7.93125ZM18.1432 18.1969C16.5002 19.8234 14.3205 20.7188 12.0002 20.7188H11.9604C10.5471 20.7117 9.14316 20.3602 7.90332 19.6992L7.70644 19.5938H4.40644V16.2938L4.30098 16.0969C3.64004 14.857 3.28848 13.4531 3.28144 12.0398C3.27207 9.70313 4.16504 7.50937 5.80332 5.85703C7.43926 4.20469 9.62598 3.29063 11.9627 3.28125H12.0025C13.1744 3.28125 14.3111 3.50859 15.3822 3.95859C16.4275 4.39687 17.365 5.02734 18.1713 5.83359C18.9752 6.6375 19.608 7.57734 20.0463 8.62266C20.501 9.70547 20.7283 10.8539 20.7236 12.0398C20.7096 14.3742 19.7932 16.5609 18.1432 18.1969V18.1969Z" fill="#1890FF"/>
<path d="M10.875 12C10.875 12.2984 10.9935 12.5845 11.2045 12.7955C11.4155 13.0065 11.7016 13.125 12 13.125C12.2984 13.125 12.5845 13.0065 12.7955 12.7955C13.0065 12.5845 13.125 12.2984 13.125 12C13.125 11.7016 13.0065 11.4155 12.7955 11.2045C12.5845 10.9935 12.2984 10.875 12 10.875C11.7016 10.875 11.4155 10.9935 11.2045 11.2045C10.9935 11.4155 10.875 11.7016 10.875 12V12Z" fill="#1890FF"/>
</svg>
