<svg width="24" height="24" viewBox="0 0 24 24" fill="none" xmlns="http://www.w3.org/2000/svg">
<path d="M19.6758 8.0625H4.32422C4.31719 8.0625 4.3125 8.06719 4.3125 8.07422V10.2117C4.3125 11.6133 5.46094 12.75 6.87422 12.75C7.82812 12.75 8.66016 12.2344 9.10312 11.468C9.17109 11.3484 9.3 11.2734 9.43828 11.2734C9.57656 11.2734 9.70312 11.3484 9.77344 11.468C10.2141 12.2344 11.0461 12.75 12 12.75C12.9563 12.75 13.7906 12.232 14.2289 11.4633C14.2969 11.3461 14.4211 11.2734 14.5547 11.2734H14.5687C14.7047 11.2734 14.8266 11.3461 14.8945 11.4633C15.3352 12.232 16.1695 12.75 17.1258 12.75C18.5391 12.75 19.6875 11.6133 19.6875 10.2117V8.07422C19.6875 8.06719 19.6828 8.0625 19.6758 8.0625Z" fill="#E6F7FF"/>
<path d="M20.6723 6.37734V3.375C20.6723 2.96016 20.3371 2.625 19.9223 2.625H4.07851C3.66366 2.625 3.32851 2.96016 3.32851 3.375V6.37734C2.9371 6.40078 2.62538 6.72656 2.62538 7.125V10.2117C2.62388 10.779 2.73875 11.3406 2.96288 11.8617C3.06366 12.1008 3.18788 12.3258 3.32851 12.5391V20.625C3.32851 21.0375 3.66366 21.375 4.07851 21.375H19.9223C20.3371 21.375 20.6723 21.0398 20.6723 20.625V12.5391C20.8151 12.3252 20.9375 12.0985 21.0379 11.8617C21.2605 11.3391 21.3754 10.7836 21.3754 10.2117V7.125C21.3754 6.72656 21.0637 6.40078 20.6723 6.37734ZM5.01601 4.3125H18.9848V6.375H5.01601V4.3125ZM13.5004 19.6898H10.5004V17.25H13.5004V19.6898ZM18.9941 19.6898H15.0004V16.5C15.0004 16.0852 14.6652 15.75 14.2504 15.75H9.75038C9.33554 15.75 9.00038 16.0852 9.00038 16.5V19.6898H5.01601V14.0133C5.08397 14.0461 5.15429 14.0789 5.22694 14.107C5.7496 14.3273 6.30507 14.4375 6.87694 14.4375C7.44882 14.4375 8.00194 14.3273 8.52694 14.107C8.85038 13.9711 9.15507 13.7977 9.43397 13.5891C9.43866 13.5867 9.44335 13.5867 9.44804 13.5891C9.72781 13.7985 10.0325 13.9725 10.3551 14.107C10.8777 14.3273 11.4332 14.4375 12.0051 14.4375C12.5769 14.4375 13.1301 14.3273 13.6551 14.107C13.9785 13.9711 14.2832 13.7977 14.5621 13.5891C14.5668 13.5867 14.5715 13.5867 14.5762 13.5891C14.8559 13.7985 15.1606 13.9725 15.4832 14.107C16.0058 14.3273 16.5613 14.4375 17.1332 14.4375C17.7051 14.4375 18.2582 14.3273 18.7832 14.107C18.8535 14.0766 18.9238 14.0461 18.9941 14.0133V19.6898ZM19.6879 10.2117C19.6879 11.6133 18.5394 12.75 17.1262 12.75C16.1699 12.75 15.3355 12.232 14.8949 11.4633C14.8269 11.3461 14.7051 11.2734 14.5691 11.2734H14.5551C14.4215 11.2734 14.2973 11.3461 14.2293 11.4633C14.0044 11.8554 13.6798 12.1811 13.2883 12.4071C12.8968 12.6331 12.4524 12.7514 12.0004 12.75C11.0465 12.75 10.2144 12.2344 9.77382 11.468C9.70351 11.3484 9.57694 11.2734 9.43866 11.2734C9.30038 11.2734 9.17147 11.3484 9.10351 11.468C8.87734 11.8586 8.55224 12.1828 8.16096 12.4079C7.76967 12.6329 7.326 12.7509 6.8746 12.75C5.46132 12.75 4.31288 11.6133 4.31288 10.2117V8.07422C4.31288 8.06719 4.31757 8.0625 4.3246 8.0625H19.6762C19.6832 8.0625 19.6879 8.06719 19.6879 8.07422V10.2117Z" fill="#1890FF"/>
</svg>
